<?xml version="1.0" encoding="utf-8"?>

<!DOCTYPE svg PUBLIC "-//W3C//DTD SVG 1.1//EN" "http://www.w3.org/Graphics/SVG/1.1/DTD/svg11.dtd">
<!-- Uploaded to: SVG Repo, www.svgrepo.com, Generator: SVG Repo Mixer Tools -->
<svg height="800px" width="800px" version="1.1" id="_x32_" xmlns="http://www.w3.org/2000/svg" xmlns:xlink="http://www.w3.org/1999/xlink" 
	 viewBox="0 0 512 512"  xml:space="preserve">
<style type="text/css">
	.st0{fill:#000000;}
</style>
<g>
	<path class="st0" d="M146.562,116.642c0,11.405-9.239,20.644-20.635,20.644c-11.405,0-20.644-9.239-20.644-20.644H0v278.716
		h105.284c0-11.405,9.239-20.644,20.644-20.644c11.396,0,20.635,9.239,20.635,20.644H512V116.642H146.562z M125.928,346.329
		c-11.405,0-20.644-9.247-20.644-20.652c0-11.405,9.239-20.644,20.644-20.644c11.396,0,20.635,9.239,20.635,20.644
		C146.562,337.082,137.324,346.329,125.928,346.329z M125.928,276.649c-11.405,0-20.644-9.239-20.644-20.644
		c0-11.397,9.239-20.652,20.644-20.652c11.396,0,20.635,9.255,20.635,20.652C146.562,267.41,137.324,276.649,125.928,276.649z
		 M125.928,206.967c-11.405,0-20.644-9.239-20.644-20.644c0-11.396,9.239-20.644,20.644-20.644c11.396,0,20.635,9.248,20.635,20.644
		C146.562,197.728,137.324,206.967,125.928,206.967z"/>
</g>
</svg>